<?xml version="1.0" encoding="UTF-8"?>
<svg id="Camada_2" data-name="Camada 2" xmlns="http://www.w3.org/2000/svg" viewBox="0 0 168.05 31.12">
  <defs>
    <style>
      .cls-1 {
        fill: #3e4e42;
      }

      .cls-2 {
        fill: #724d31;
      }
    </style>
  </defs>
  <g id="Camada_1-2" data-name="Camada 1">
    <g>
      <g>
        <path class="cls-1" d="M58.22,11.02c.87,0,1.69-.44,2.18-1.17l.05-.08-.4-.28-.05.08c-.41.6-1.07.96-1.78.96-1.19,0-2.16-1.01-2.16-2.25s.97-2.26,2.16-2.26c.71,0,1.37.36,1.78.96l.05.08.41-.27-.05-.08c-.49-.74-1.31-1.18-2.18-1.18-1.46,0-2.65,1.24-2.65,2.75s1.19,2.74,2.65,2.74Z"/>
        <path class="cls-1" d="M73.99,5.43c-.12-.05-.26,0-.32.14l-2.3,5.41h.53l.58-1.35h2.84l.58,1.35h.53l-2.3-5.41c-.02-.06-.07-.11-.14-.14ZM72.69,9.12l1.21-2.84,1.21,2.84h-2.42Z"/>
        <rect class="cls-1" x="148.37" y="5.56" width=".49" height="5.42"/>
        <path class="cls-1" d="M134.45,9.31h1.59l1.28,1.66h.62l-1.34-1.74c.77-.24,1.28-.95,1.28-1.81,0-1.1-.79-1.9-1.89-1.9h-1.79c-.14,0-.25.11-.25.25v5.21h.49v-1.66ZM134.45,6.01h1.55c.83,0,1.39.56,1.39,1.41s-.56,1.4-1.39,1.4h-1.55v-2.81Z"/>
        <path class="cls-1" d="M163.1,11.02c1.44,0,2.61-1.23,2.61-2.74s-1.17-2.75-2.61-2.75-2.61,1.23-2.61,2.75,1.17,2.74,2.61,2.74ZM163.1,6.01c1.17,0,2.12,1.01,2.12,2.26s-.95,2.25-2.12,2.25-2.12-1.01-2.12-2.25.95-2.26,2.12-2.26Z"/>
        <path class="cls-1" d="M91.16,10.97h.62l-1.34-1.74c.77-.24,1.28-.95,1.28-1.81,0-1.1-.79-1.9-1.88-1.9h-1.8c-.14,0-.25.11-.25.25v5.21h.49v-1.66h1.59l1.28,1.66ZM88.3,8.82v-2.81h1.55c.83,0,1.39.56,1.39,1.41s-.56,1.4-1.39,1.4h-1.55Z"/>
        <polygon class="cls-1" points="104.82 10.97 104.82 6.05 106.49 6.05 106.49 5.56 102.65 5.56 102.65 6.05 104.32 6.05 104.32 10.97 104.82 10.97"/>
        <path class="cls-1" d="M122.31,8.27c0-1.49-1.13-2.7-2.53-2.75l.89-.83-.3-.33-.91.85.29.31h-.05c-1.44,0-2.61,1.23-2.61,2.75s1.17,2.74,2.61,2.74,2.61-1.23,2.61-2.74ZM117.58,8.27c0-1.24.95-2.25,2.12-2.25s2.12,1.01,2.12,2.25-.95,2.25-2.12,2.25-2.12-1.01-2.12-2.25Z"/>
        <path class="cls-1" d="M58.64,16.14l-5.4,12.33h.98l1.35-3.27h5.4l1.36,3.27h1.98l-5.4-12.33h-.27ZM55.84,24.5l2.44-5.89,2.4,5.89h-4.84Z"/>
        <path class="cls-1" d="M70.69,27.71c-.32-.07-.64-.14-.95-.23v-11.06h-1.78v12.04h6.64l.22-1.22-3.29.56c-.23,0-.51-.03-.83-.1Z"/>
        <polygon class="cls-1" points="83.15 26.28 79.15 16.43 77.17 16.43 82.57 28.76 82.86 28.76 87.66 16.43 86.75 16.43 83.15 26.28"/>
        <path class="cls-1" d="M95.24,16.14l-5.4,12.33h.98l1.35-3.27h5.4l1.36,3.27h1.98l-5.4-12.33h-.27ZM92.44,24.5l2.44-5.89,2.4,5.89h-4.84Z"/>
        <path class="cls-1" d="M111.68,21.55c.65-.5.98-1.18.98-2.05,0-.67-.19-1.23-.55-1.68-.37-.45-.87-.8-1.5-1.04-.63-.24-1.34-.35-2.13-.35h-3.93v12.04h1.78v-5.75h1.4l4.22,6,2.11-.25-4.87-5.89c1.01-.18,1.84-.52,2.49-1.03ZM107.5,22.17h-1.16v-4.76c.32-.08.71-.16,1.19-.22.48-.06.89-.09,1.25-.09.48.13.86.32,1.14.57.27.25.47.51.59.78.12.27.2.52.23.73.03.21.05.35.05.41,0,.42-.09.83-.27,1.23-.18.39-.51.72-.97.97-.47.25-1.14.38-2.03.38Z"/>
        <path class="cls-1" d="M119.73,22.5h4.04v-.69h-4.04v-4.42c.35-.1.68-.17.98-.23.3-.05.63-.08.98-.08l3.38.56.18-1.22h-7.29v12.04h7.22l.18-1.22-5.64.56v-5.31Z"/>
        <polygon class="cls-1" points="138.35 25.17 138.28 25.17 131.35 16.43 130.01 16.43 130.01 28.46 130.81 28.46 130.81 18.7 130.88 18.7 138.84 28.66 139.15 28.66 139.15 16.43 138.35 16.43 138.35 25.17"/>
        <path class="cls-1" d="M151.86,27.86c-.27.06-.54.11-.82.14-.28.03-.56.05-.84.05-.98,0-1.85-.21-2.62-.63-.76-.42-1.37-1.04-1.81-1.86-.44-.82-.66-1.84-.66-3.05,0-1.42.36-2.62,1.07-3.61.71-.99,1.68-1.63,2.89-1.94.7,0,1.38.1,2.04.29.65.19,1.33.44,2.04.75l.18-1.22c-.19-.08-.47-.17-.82-.25-.35-.08-.73-.16-1.15-.22-.41-.06-.81-.09-1.18-.09-.78,0-1.57.12-2.39.37-.82.25-1.58.64-2.27,1.17-.7.53-1.26,1.22-1.69,2.05-.43.83-.65,1.83-.65,2.99,0,1.01.18,1.88.55,2.62.37.74.87,1.35,1.51,1.84.64.48,1.35.85,2.15,1.08.79.24,1.62.35,2.46.35.36,0,.77-.02,1.21-.06.44-.04.89-.11,1.34-.2.45-.09.85-.21,1.22-.35v-4.78h-1.76v4.58Z"/>
        <path class="cls-1" d="M162.64,16.14h-.27l-5.4,12.33h.98l1.35-3.27h5.4l1.36,3.27h1.98l-5.4-12.33ZM159.57,24.5l2.44-5.89,2.4,5.89h-4.84Z"/>
      </g>
      <path class="cls-2" d="M43.15,13.75c-1.06-.02-1.89,1.08-1.76,2.34.2,1.95,0,3.11-1.01,4.04-2.07,1.88-5.71,1.52-9.36.34L19.94,0l-1.29,2.35,4.88,9.02c-.56,1.31-1.52,3.48-2.29,4.99-3.43-1.32-8.23-2.75-12.66-2.11C3.42,14.99.11,20,0,24.2c-.09,3.51,1.89,6.05,5.28,6.78.2.04.4.08.6.1,6.24.73,12.75-7.95,15.78-13.75,2.72,1.31,2.24,1.17,3.55,1.8.29.14.57.28.85.41.8.39,1.65.78,2.52,1.15l4.36,8.05h2.57s-3.68-6.78-3.68-6.78c4.15,1.43,8.32,2.06,10.54.05,1.33-1.21,2.45-3.32,2.5-6.13.02-1.15-.75-2.11-1.72-2.12ZM5.88,29.79c-2.92-.64-4.55-2.74-4.47-5.77.1-3.81,3.06-8.37,7.68-9.07,1.72-.26,3.38-.26,4.97-.07,2.18.25,4.95,1.38,6.81,2.1-3.01,5.84-9.28,14.06-15,12.81ZM26.38,18.59c-.28-.13-.56-.27-.84-.41-1.27-.62-2.1-.86-3.64-1.5.79-1.57,1.65-3.5,2.08-4.49l3.81,7.04c-.48-.21-.95-.43-1.41-.65Z"/>
    </g>
  </g>
</svg>